<?xml version="1.0" encoding="UTF-8"?>
<svg width="50" height="65" viewBox="0 0 50 65" xmlns="http://www.w3.org/2000/svg"
    xmlns:xlink="http://www.w3.org/1999/xlink">
    <g>
        <g transform="translate(-1222, -100)" fill="#EFE5D9">
            <path
                d="M1237.9677,100 L1237.82384,100.098416 L1237.24691,100.240821 L1236.85931,100.433925 L1235.36182,100.627029 L1232.46897,101.110162 L1231.11758,101.398699 L1230.63606,102.749682 L1224.26822,127.601198 L1222,150.860164 L1222.0969,151.006297 L1222.24076,151.294089 L1222.62687,151.487939 L1244.52935,165 L1251.28555,164.274555 L1252.15318,164.22833 L1263.15212,160.801666 L1263.49053,160.656278 L1264.26126,160.220117 L1269.23076,157.085718 L1269.56842,156.940331 L1270,156.844152 L1270,156.142565 L1269.23076,126.879481 L1268.99149,126.784047 L1268.60314,126.058602 L1260.21008,112.304229 L1261.85067,112.112616 L1261.89763,112.016437 L1262.37841,111.774871 L1262.62141,108.252027 L1262.57146,107.045687 L1261.94459,106.225554 L1237.9677,100 Z M1255.19138,107.140375 L1237.10081,102.458907 L1238.0169,102.218087 L1238.06535,102.121162 L1257.45959,107.091912 L1256.97807,107.285762 L1255.19138,107.140375 Z M1243.90173,162.296544 L1224.12212,150.040777 L1226.19802,128.18051 L1232.51742,103.473635 L1232.61358,103.376711 L1254.80601,109.069923 L1246.5568,127.795047 L1245.97764,128.999151 L1246.0723,130.012388 L1244.19094,162.345752 L1243.90173,162.296544 Z M1258.27952,109.069923 L1260.64389,108.395923 L1260.74005,110.228548 L1259.53475,110.325472 L1258.27952,109.069923 Z M1267.73626,154.383008 L1266.91558,153.466696 L1263.49053,149.992315 L1259.10019,145.166952 L1251.28629,122.099597 L1256.49506,110.277755 L1256.54426,110.324727 L1267.25325,127.746585 L1267.97702,154.432216 L1267.73626,154.383008 Z M1248.1005,129.242209 L1250.0318,124.803053 L1250.07727,124.85077 L1257.45885,146.470217 L1256.78427,147.434992 L1246.26685,161.23559 L1248.1005,129.242209 Z M1248.1005,162.199619 L1257.36344,149.992315 L1258.90863,148.108992 L1266.77023,156.268568 L1263.63215,158.243597 L1262.62215,158.92207 L1252.05553,162.199619 L1247.90819,162.635035 L1248.1005,162.199619 Z"
            ></path>
        </g>
    </g>
</svg>